<?xml version="1.0" encoding="UTF-8" standalone="no"?>
<!-- Created with Inkscape (http://www.inkscape.org/) -->

<svg
   xmlns:dc="http://purl.org/dc/elements/1.1/"
   xmlns:cc="http://creativecommons.org/ns#"
   xmlns:rdf="http://www.w3.org/1999/02/22-rdf-syntax-ns#"
   xmlns:svg="http://www.w3.org/2000/svg"
   xmlns="http://www.w3.org/2000/svg"
   xmlns:sodipodi="http://sodipodi.sourceforge.net/DTD/sodipodi-0.dtd"
   xmlns:inkscape="http://www.inkscape.org/namespaces/inkscape"
   id="svg2"
   version="1.1"
   inkscape:version="0.91 r13725"
   width="600"
   height="600"
   viewBox="0 0 600 600"
   sodipodi:docname="texture6.svg"
   inkscape:export-filename="/home/brais/AppAcuario/css/texture7.png"
   inkscape:export-xdpi="90"
   inkscape:export-ydpi="90">
  <metadata
     id="metadata8">
    <rdf:RDF>
      <cc:Work
         rdf:about="">
        <dc:format>image/svg+xml</dc:format>
        <dc:type
           rdf:resource="http://purl.org/dc/dcmitype/StillImage" />
        <dc:title />
      </cc:Work>
    </rdf:RDF>
  </metadata>
  <defs
     id="defs6" />
  <sodipodi:namedview
     pagecolor="#ffffff"
     bordercolor="#666666"
     borderopacity="1"
     objecttolerance="10"
     gridtolerance="10"
     guidetolerance="10"
     inkscape:pageopacity="0"
     inkscape:pageshadow="2"
     inkscape:window-width="1329"
     inkscape:window-height="744"
     id="namedview4"
     showgrid="false"
     inkscape:zoom="0.55625733"
     inkscape:cx="161.07544"
     inkscape:cy="292.88658"
     inkscape:window-x="37"
     inkscape:window-y="24"
     inkscape:window-maximized="1"
     inkscape:current-layer="svg2" />
  <g
     id="g7208"
     transform="translate(-746.05758,-602.53809)">
    <path
       inkscape:connector-curvature="0"
       id="path7206"
       d="m 0,1067.555 0,-134.98741 5.25,2.34418 c 2.8875,1.28929 13.477784,6.06834 23.533964,10.62009 10.05618,4.55175 18.408066,8.1037 18.559747,7.89321 0.151681,-0.21048 5.308967,-11.57466 11.460635,-25.25371 L 69.989198,903.30034 58.899813,878.67136 c -6.099162,-13.54595 -11.404681,-24.96444 -11.790041,-25.37443 -0.385361,-0.41 -9.230207,3.12819 -19.655214,7.86263 C 17.029551,865.894 6.5875,870.60096 4.25,871.61946 L 0,873.4713 0,738.00254 0,602.53379 l 112.65191,0.25429 112.65191,0.25429 10.91256,24.11909 10.91255,24.11909 26.43554,-11.9535 L 300,627.37354 l 26.43553,11.95351 26.43554,11.9535 10.91255,-24.11909 10.91256,-24.11909 112.65191,-0.25429 L 600,602.53379 l 0,135.49168 0,135.49168 -5.25,-2.34238 c -2.8875,-1.28832 -13.46827,-6.07687 -23.51282,-10.64124 -10.04455,-4.56437 -18.42385,-8.11712 -18.62065,-7.895 -0.31847,0.35941 -21.19492,46.74281 -22.28912,49.52204 -0.47738,1.21255 3.79754,11.00301 19.31083,44.22584 2.11852,4.53696 3.89415,7.14786 4.64552,6.83079 0.66893,-0.28228 9.31624,-4.20156 19.21624,-8.70951 9.9,-4.50795 19.9125,-9.02832 22.25,-10.04526 l 4.25,-1.84899 0,134.96446 0,134.9645 -112.75,-0.011 -112.75,-0.011 -10.89194,-24.0415 c -6.38783,-14.0997 -11.35016,-23.8474 -12,-23.5721 -0.60943,0.2582 -12.07635,5.4569 -25.48204,11.5526 -13.40569,6.0956 -25.1624,11.083 -26.12602,11.083 -0.96362,0 -12.72033,-4.9874 -26.12602,-11.0831 -13.40569,-6.0957 -24.87341,-11.2946 -25.48383,-11.5532 -0.65262,-0.2765 -5.58396,9.4393 -11.9698,23.5831 l -10.85995,24.0532 -112.7802,0 -112.7802,0 0,-134.9874 z m 458.77015,61.2374 c 6.19126,-13.6125 11.25076,-25.0533 11.24334,-25.4241 -0.0282,-1.408 -31.15606,-45.3387 -32.306,-45.5933 -0.66412,-0.1471 -9.30749,3.3315 -19.20749,7.7302 l -18,7.9976 -0.23978,29.7698 -0.23978,29.7698 22.73978,10.2268 c 12.50688,5.6248 23.19277,10.2373 23.74644,10.25 0.55366,0.013 6.07223,-11.1143 12.26349,-24.7268 z M 85.5,1034.9661 l 14,-6.3007 0.250852,-25.3115 0.250848,-25.31153 -26.109508,-11.84134 c -14.360231,-6.51274 -26.453933,-11.46274 -26.874892,-11 -1.174479,1.29104 -21.351569,46.36877 -21.343798,47.68427 0.0038,0.6364 4.87703,12.0065 10.829491,25.2668 l 10.822656,24.1098 12.087175,-5.4976 C 66.060771,1043.7407 77.8,1038.4314 85.5,1034.9661 Z M 299.7667,1003.2659 299.5,978.4334 273.08517,966.48605 c -14.52815,-6.57105 -26.48663,-11.83403 -26.57439,-11.69552 -0.0878,0.13851 -4.96852,11.11702 -10.84611,24.39668 l -10.68654,24.14479 11.07557,24.4724 11.07558,24.4724 26.45207,-12.0892 26.45206,-12.0891 -0.26671,-24.8326 z M 226.2052,904.94496 C 240.11734,890.31638 251.5,877.88885 251.5,877.32823 c 0,-1.19317 -50.72132,-73.72598 -51.58068,-73.76171 -0.90557,-0.0377 -51.41932,72.17542 -51.41932,73.50764 0,1.3408 50.31866,54.46821 51.58857,54.46821 0.45201,0 12.20449,-11.96884 26.11663,-26.59741 z M 432.52298,785.29237 c 4.30384,-9.4875 9.27879,-20.44298 11.05544,-24.34551 l 3.23028,-7.09552 -23.54061,-10.62969 -23.54061,-10.62969 -23.36374,10.58585 C 363.51368,749.00003 353,753.94957 353,754.17679 c 0,0.51048 18.69051,41.81797 20.6398,45.61558 l 1.41156,2.75 24.82323,0 24.82322,0 7.82517,-17.25 z M 129.56806,764.00322 c 16.45064,-7.44654 30.27097,-13.89988 30.71184,-14.34075 0.44087,-0.44087 -6.51081,-11.22325 -15.44818,-23.96084 l -16.24976,-23.15926 -29.084493,0 -29.084492,0 -11.206488,24.98205 c -6.163568,13.74013 -11.190355,25.32763 -11.170638,25.75 0.01972,0.42237 11.607217,6.01596 25.75,12.43018 14.142783,6.41423 25.749657,11.70173 25.793052,11.75 0.0434,0.0483 13.538519,-6.00485 29.989159,-13.45138 z"
       style="fill:#f9f9f9" />
    <path
       inkscape:connector-curvature="0"
       id="path7204"
       d="m -1.5e-5,1068.0381 c 0,-74.17174 0.38493,-134.52988 0.85796,-134.52988 0.66851,0 44.8765,19.7233 45.88405,20.47107 0.13311,0.0988 -4.06793,9.59571 -9.33565,21.10427 -5.26771,11.50856 -10.23306,22.53741 -11.03412,24.50855 -1.45629,3.58349 -1.45514,3.58679 9.55086,27.88189 6.05404,13.3639 11.16544,24.4561 11.35868,24.6493 0.19323,0.1933 12.02138,-4.9436 26.28478,-11.4152 l 25.93344,-11.7666 0.29711,-25.4666 0.297105,-25.46668 25.52242,-11.45798 c 14.03733,-6.3019 25.71903,-11.77611 25.95932,-12.16492 0.2403,-0.38881 -3.40293,-9.40771 -8.09606,-20.04201 -4.69313,-10.6343 -9.75852,-22.13549 -11.25643,-25.55821 l -2.72346,-6.22311 -29.623475,-0.0269 -29.62348,-0.0269 -10.57607,-23.25 c -5.81684,-12.7875 -10.93628,-24.22195 -11.37653,-25.40989 -0.77225,-2.08381 -1.60705,-1.79319 -23.69796,8.25 -12.59362,5.72544 -23.28112,10.40989 -23.74999,10.40989 -0.46888,0 -0.8525,-60.75 -0.8525,-135 l 0,-135 12.35033,0 12.35033,0 10.849,24.06417 c 5.96695,13.2353 11.15207,24.25148 11.52248,24.48041 0.37041,0.22893 12.42002,-4.86245 26.7769,-11.31417 l 26.10342,-11.73041 0.02377,-12.75 0.02377,-12.75 62.349525,0 62.34953,0 10.74849,23.75 c 5.91166,13.0625 11.05938,24.0825 11.43936,24.4889 0.37999,0.40639 12.08344,-4.43111 26.00767,-10.75 13.92424,-6.3189 26.1094,-11.4889 27.07815,-11.4889 2.49148,0 51.14238,22.13636 51.6694,23.50979 0.2391,0.62306 -4.13031,11.22574 -9.70978,23.56152 -5.57947,12.33578 -10.57467,23.61998 -11.10045,25.076 -0.82388,2.28156 0.57235,6.04151 10.10607,27.21494 6.08412,13.51219 11.06024,24.92091 11.05805,25.35269 -0.002,0.43178 -11.58968,6.01065 -25.75,12.39748 l -25.74602,11.61241 0,25.73041 0,25.7304 25.42645,11.91697 c 13.98455,6.55432 25.56292,12.05342 25.72971,12.22022 0.1668,0.1668 -4.6376,11.25099 -10.67645,24.63154 -6.03884,13.38054 -10.97971,24.73768 -10.97971,25.23808 0,0.50039 7.04231,10.8993 15.64958,23.10868 8.60727,12.20938 15.69477,22.7765 15.75,23.4825 0.10673,1.36431 -58.05243,28.212 -61.13673,28.2222 -0.96956,0.003 -13.357,-5.24013 -27.52765,-11.65186 -14.17064,-6.41174 -25.96938,-11.45311 -26.21943,-11.20306 -0.25005,0.25005 -5.1408,11.00589 -10.86833,23.90186 l -10.41369,23.44724 -25.17193,0.5 -25.17193,0.5 -13.47324,30 c -7.41029,16.5 -13.89033,30.9 -14.40011,32 -0.50978,1.1 -4.53643,10.1535 -8.94809,20.1188 l -8.02122,18.1187 10.97861,24.7303 c 6.03823,13.6017 11.201,25.0902 11.47281,25.53 0.27181,0.4398 11.12393,-3.9923 24.11583,-9.8491 l 23.62162,-10.6487 -0.45191,-29.6695 -0.4519,-29.6695 18.58385,-8.2153 c 10.22112,-4.5183 32.9017,-14.7224 50.40129,-22.6756 l 31.81744,-14.4604 30.18256,13.5308 c 16.60041,7.442 30.78467,13.6723 31.52054,13.8452 0.7903,0.1856 8.86792,-10.5159 19.73363,-26.144 15.99953,-23.012 18.23493,-26.6895 17.16203,-28.2327 -0.6785,-0.9759 -9.03855,-12.86693 -18.57789,-26.42444 -13.08503,-18.59672 -17.01415,-24.85744 -16,-25.49464 0.73934,-0.46454 9.10676,-4.32976 18.59426,-8.58938 l 17.25003,-7.74476 -0.024,-30.0279 -0.024,-30.02789 -23.46213,-10 c -12.90416,-5.5 -23.46233,-10.45 -23.4626,-11 -2.8e-4,-0.55 4.92054,-11.8 10.93515,-25 l 10.93565,-24 25.30093,-0.29004 25.301,-0.29004 10.5,-23.53717 c 5.775,-12.94544 10.9637,-23.73765 11.5304,-23.9827 0.5668,-0.24504 12.4361,4.7397 26.3763,11.07721 13.9402,6.33751 25.6875,11.52274 26.105,11.52274 1.822,0 52.4713,-23.84131 52.3183,-24.62696 -0.093,-0.48017 -5.1765,-11.93198 -11.2957,-25.44846 l -11.1258,-24.57543 10.9714,-24.42457 c 6.0343,-13.43352 11.1173,-24.99362 11.2957,-25.68911 0.204,-0.7953 -9.1379,-5.57222 -25.1756,-12.87342 -14.025,-6.38489 -26.0222,-11.62835 -26.6603,-11.65214 -1.787,-0.0666 -53.3397,23.47551 -52.9372,24.17439 2.8692,4.98248 22.6336,50.57278 22.2971,51.43244 -0.8499,2.17147 -21.9856,49.17805 -22.2666,49.52174 -0.1521,0.18616 -10.7743,-4.40483 -23.6048,-10.20221 l -23.3282,-10.54069 -0.2644,-29.83465 -0.2643,-29.83465 -23.05496,-10.42074 c -12.68022,-5.73141 -23.19391,-10.66482 -23.36376,-10.96314 -0.16985,-0.29832 4.65435,-11.4549 10.72044,-24.7924 l 11.02924,-24.25 112.34884,0 112.3489,0 0,135 c 0,74.25 -0.331,135 -0.7356,135 -0.4046,0 -22.6545,-9.9 -49.4442,-22 -26.7898,-12.1 -49.32009,-22 -50.06739,-22 -2.98251,0 -52.2446,22.98778 -51.92011,24.22813 0.183,0.69953 5.29421,12.241 11.3581,25.64772 l 11.0254,24.37584 -3.93159,5.62416 c -2.1623,3.09328 -6.57841,9.44915 -9.8136,14.12415 -3.23511,4.675 -8.7145,12.52061 -12.1765,17.43469 -3.462,4.91408 -6.2945,9.21323 -6.2945,9.55367 0,0.82651 60.27209,28.01164 62.10459,28.01164 0.7879,0 23.18981,-9.9 49.782,-22 26.5922,-12.1 48.7463,-22 49.2314,-22 0.5049,0 0.882,57.50224 0.882,134.50431 l 0,134.5043 -112.6483,-0.2543 -112.64836,-0.2543 -10.78203,-23.807 -10.78202,-23.807 7.68035,-3.5031 c 4.22419,-1.9268 14.76568,-6.6889 23.42557,-10.5825 l 15.74519,-7.0793 23.5501,10.6394 c 12.9526,5.8518 23.915,10.6395 24.3609,10.6395 0.4459,0 12.2293,5.175 26.1852,11.5 13.956,6.325 25.6996,11.5 26.0968,11.5 2.0166,0 51.8166,-23.4075 51.8166,-24.3553 0,-0.609 -5.0419,-12.2532 -11.2041,-25.876 l -11.2041,-24.7687 -29.65689,0 -29.6569,0 -15.389,-22.1303 c -8.464,-12.1716 -15.6817,-22.5881 -16.0394,-23.1478 -0.3947,-0.6175 -7.9154,2.1848 -19.1354,7.1303 -10.1668,4.4813 -19.1458,8.1478 -19.9532,8.1478 -0.8074,0 -9.29649,-3.5685 -18.86455,-7.9299 -16.21653,-7.3921 -17.50546,-7.816 -19.00327,-6.25 -2.51306,2.6274 -31.89321,44.1337 -31.89321,45.0566 0,0.4529 4.7177,11.3136 10.48378,24.1347 5.76608,12.8211 10.72389,24.0676 11.01735,24.9922 0.43452,1.369 -4.29768,3.8665 -25.49633,13.456 l -26.02988,11.775 -26.36888,-11.9628 -26.36889,-11.9629 -10.92915,24.0956 -10.92915,24.0955 -62.65859,0.2575 -62.65858,0.2575 -0.280845,-12.0252 -0.28084,-12.0253 -26.4147,-11.9842 c -14.52809,-6.5913 -26.48524,-11.8708 -26.57144,-11.7322 -0.0862,0.1385 -4.91372,10.8269 -10.72782,23.7519 l -10.57108,23.5 -12.60748,0.2799 -12.60748,0.2799 0,-134.5299 z m 533.916125,25.9701 c 0,-0.55 -0.8622,0.575 -1.91609,2.5 -1.05391,1.925 -1.9162,3.95 -1.9162,4.5 0,0.55 0.8623,-0.575 1.9162,-2.5 1.0539,-1.925 1.91609,-3.95 1.91609,-4.5 z M 226.32191,905.48264 c 14.12294,-14.86407 25.67808,-27.46463 25.67808,-28.00125 0,-0.97183 -30.39634,-44.41692 -70.99563,-101.47317 -34.93977,-49.10263 -50.18337,-70.8029 -50.72163,-72.20555 -0.40884,-1.06541 -6.34621,-1.27187 -30.452505,-1.05895 l -29.94466,0.2645 -11.47859,25.48806 c -6.31323,14.01844 -11.12499,25.61577 -10.69279,25.77185 0.43219,0.15607 12.0358,5.40472 25.7858,11.66366 l 25,11.37988 0.62519,17.84827 c 0.34386,9.81656 0.69624,21.22328 0.78308,25.34828 l 0.157895,7.5 28.71691,30.16208 c 15.79431,16.58914 38.16692,40.09461 49.71692,52.23438 11.55,12.13976 21.25737,22.07933 21.57193,22.08792 0.31456,0.009 12.12706,-12.14589 26.25,-27.00996 z m 27.04834,-179.33615 16.57225,-23.36173 -10.08245,-22.38827 c -5.54535,-12.31355 -10.71051,-23.84373 -11.47814,-25.62262 l -1.39568,-3.23435 -5.74312,2.53729 c -3.15872,1.3955 -13.73062,6.20444 -23.49312,10.68652 l -17.75,8.14924 0,25.15825 c 0,13.83704 -0.27188,27.14182 -0.60417,29.56618 l -0.60418,4.40792 18.85418,8.64503 c 10.36979,4.75476 18.92122,8.684 19.00317,8.73165 0.082,0.0476 7.60652,-10.42616 16.72126,-23.27511 z"
       style="fill:#e6e6e6" />
    <path
       inkscape:connector-curvature="0"
       id="path7202"
       d="m 100.22318,1189.8571 0.27991,-12.6849 24.89029,-11.3191 c 13.68965,-6.2254 25.54176,-11.319 26.33802,-11.319 0.79626,0 12.09563,-4.7758 25.10972,-10.6129 l 23.66197,-10.6129 -0.27834,-29.7674 -0.27834,-29.7674 23.27834,-10.1689 c 12.80309,-5.593 24.40334,-10.7798 25.77834,-11.5263 1.375,-0.7465 13.42126,-6.345 26.76946,-12.441 l 24.26946,-11.0837 30.23054,13.5786 c 16.6268,7.4683 30.59786,13.9287 31.04681,14.3565 0.44894,0.4279 -6.45973,10.9631 -15.35261,23.4117 l -16.16888,22.6337 -29.82408,0 -29.82409,0 -2.68346,5.75 c -2.628,5.6311 -15.64961,34.3513 -19.60937,43.25 -1.10134,2.475 -6.67055,14.85 -12.37602,27.5 l -10.37359,23 -62.58199,0.254 -62.581996,0.254 0.279906,-12.685 z m 110.77991,-52.323 c -0.825,-0.5332 -1.95,-0.9694 -2.5,-0.9694 -0.55,0 -0.325,0.4362 0.5,0.9694 0.825,0.5331 1.95,0.9694 2.5,0.9694 0.55,0 0.325,-0.4363 -0.5,-0.9694 z m 216.56601,59.25 c 12.21532,-27.6443 19.09254,-42.1937 19.93399,-42.1722 0.55,0.014 12.66881,5.3197 26.93068,11.7906 l 25.93069,11.7651 26.01336,-11.8227 c 14.30735,-6.5025 26.32461,-11.4825 26.70502,-11.0668 0.70671,0.7724 20.92025,46.0014 20.92025,46.8103 0,0.2451 -33.51933,0.4457 -74.48739,0.4457 l -74.48739,0 2.54079,-5.75 z M 23.003088,1143.1619 0.50308836,1132.9289 0.24825885,1033.2315 c -0.14015624,-54.8336 -0.001061,-99.69742 0.30910032,-99.69742 1.69585683,0 45.44572883,20.42643 45.44572883,21.21821 0,0.51967 -4.725,11.37327 -10.5,24.11911 -5.775,12.74584 -10.5,23.5581 -10.5,24.0272 0,0.9056 12.335964,28.6344 32.610848,73.3027 l 12.331167,27.1672 -11.162501,25.0828 c -6.139376,13.7955 -11.638829,25.0515 -12.221008,25.0132 -0.582178,-0.038 -11.183506,-4.6745 -23.558506,-10.3026 z m 526.970362,3.6222 c -1.66197,-3.7125 -6.76276,-15.0242 -11.33509,-25.1372 l -8.31333,-18.3872 11.06227,-24.8325 c 6.35926,-14.2752 11.68171,-24.9517 12.51929,-25.113 0.80136,-0.1544 -10.9991,-5.9015 -26.22324,-12.7713 l -27.68026,-12.4907 -0.1863,-8.0091 -0.18631,-8.009 -0.56369,8.3803 -0.5637,8.3804 -30,13.7492 c -16.5,7.562 -30.30261,13.5734 -30.67247,13.3585 -0.64754,-0.3761 -22.00983,-30.5861 -50.46665,-71.36842 -7.48362,-10.725 -15.98786,-22.88899 -18.89834,-27.03109 l -5.29176,-7.5311 18.2605,-8.2189 c 10.04327,-4.5204 18.49518,-8.21891 18.78202,-8.21891 0.28684,0 22.89382,10.11279 50.23774,22.47286 l 49.71621,22.47287 21.0343,-9.53712 c 11.56887,-5.24541 24.69374,-11.25129 29.16638,-13.34641 15.74305,-7.3745 48.36361,-22.0622 48.99893,-22.0622 0.35354,0 0.52813,44.85814 0.38797,99.68472 l -0.25483,99.6848 -22.5,10.2715 c -12.375,5.6493 -22.83927,10.2911 -23.25394,10.3152 -0.41466,0.024 -2.11373,-2.9937 -3.7757,-6.7062 z m 45.02964,-75.75 c -1.375,-0.786 -2.95,-1.4291 -3.5,-1.4291 -0.55,0 0.125,0.6431 1.5,1.4291 1.375,0.786 2.95,1.4291 3.5,1.4291 0.55,0 -0.125,-0.6431 -1.5,-1.4291 z m -11,-5 c -1.375,-0.786 -2.95,-1.4291 -3.5,-1.4291 -0.55,0 0.125,0.6431 1.5,1.4291 1.375,0.786 2.95,1.4291 3.5,1.4291 0.55,0 -0.125,-0.6431 -1.5,-1.4291 z m -9,-4 c -1.375,-0.786 -2.95,-1.4291 -3.5,-1.4291 -0.55,0 0.125,0.6431 1.5,1.4291 1.375,0.786 2.95,1.4291 3.5,1.4291 0.55,0 -0.125,-0.6431 -1.5,-1.4291 z m -11,-5 c -1.375,-0.786 -2.95,-1.4291 -3.5,-1.4291 -0.55,0 0.125,0.6431 1.5,1.4291 1.375,0.786 2.95,1.4291 3.5,1.4291 0.55,0 -0.125,-0.6431 -1.5,-1.4291 z m 7.96937,-47 c 0,-0.55 -0.43621,-0.325 -0.96937,0.5 -0.53316,0.825 -0.96937,1.95 -0.96937,2.5 0,0.55 0.43621,0.325 0.96937,-0.5 0.53316,-0.825 0.96937,-1.95 0.96937,-2.5 z m 0.1527,-14.17502 c -1.17884,-2.02721 -1.46351,-1.37835 -0.49853,1.13634 0.34294,0.8937 0.83419,1.41426 1.09166,1.15679 0.25747,-0.25747 -0.009,-1.28938 -0.59313,-2.29313 z m -14,-31 c -1.17884,-2.02721 -1.46351,-1.37835 -0.49853,1.13634 0.34294,0.8937 0.83419,1.41426 1.09166,1.15679 0.25747,-0.25747 -0.009,-1.28938 -0.59313,-2.29313 z m -432.38872,74.87122 -25.766644,-11.6958 0.266644,-24.7884 0.26665,-24.78839 16.5,-7.52359 c 9.075,-4.13797 20.775,-9.38268 26,-11.6549 9.66313,-4.20225 15.80681,-7.60177 11.44204,-6.33129 -1.85866,0.54101 -3.13165,-1.84038 -13.14463,-24.58974 l -11.08666,-25.18877 7.14462,-10.3168 c 3.92955,-5.67424 7.76202,-11.2172 8.5166,-12.31767 0.75459,-1.10048 1.14886,-2.00087 0.87618,-2.00087 -0.27269,0 -4.22792,5.4 -8.7894,12 l -8.29359,12 -29.58258,-0.003 -29.582582,-0.003 -11.302861,-25.11064 c -6.216574,-13.81085 -11.166574,-25.21632 -11,-25.3455 0.166573,-0.12918 8.402861,-3.87641 18.302861,-8.32717 9.9,-4.45077 21.463044,-9.67136 25.695652,-11.60131 l 7.695652,-3.50901 49.304348,51.58301 c 27.11739,28.37066 49.56207,51.98313 49.87707,52.47215 0.60462,0.93868 13.8626,-12.2989 38.46439,-38.40519 8.16328,-8.6625 14.94884,-15.75 15.07903,-15.75 0.13019,0 3.94833,5.2875 8.48476,11.75 4.53642,6.4625 8.73203,12.08061 9.32357,12.48469 0.59154,0.40408 14.16689,0.74158 30.16743,0.75 l 29.09191,0.0153 16.24378,23.08098 c 8.93408,12.69454 16.09273,23.20852 15.9081,23.36441 -0.93366,0.78833 -60.95531,27.55462 -61.78941,27.55462 -1.28792,0 -52.27082,-22.98817 -53.49628,-24.12146 -0.5225,-0.4832 -1.4225,-0.87165 -2,-0.86323 -0.5775,0.008 -0.44553,0.39842 0.29327,0.86666 1.05091,0.66606 -0.95047,6.04959 -9.19535,24.73469 l -10.53861,23.88332 -25.28937,0.5 -25.28936,0.5 -10.95022,24.25 c -6.02262,13.3375 -11.2045,24.2257 -11.51529,24.196 -0.31079,-0.03 -12.16006,-5.3171 -26.33172,-11.7498 z m 49.26665,-95.19622 c 0.825,-0.53316 1.05,-0.96937 0.5,-0.96937 -0.55,0 -1.675,0.43621 -2.5,0.96937 -0.825,0.53316 -1.05,0.96937 -0.5,0.96937 0.55,0 1.675,-0.43621 2.5,-0.96937 z m 52,0 c -0.825,-0.53316 -1.95,-0.96937 -2.5,-0.96937 -0.55,0 -0.325,0.43621 0.5,0.96937 0.825,0.53316 1.95,0.96937 2.5,0.96937 0.55,0 0.325,-0.43621 -0.5,-0.96937 z m -41,-5 c 0.825,-0.53316 1.05,-0.96937 0.5,-0.96937 -0.55,0 -1.675,0.43621 -2.5,0.96937 -0.825,0.53316 -1.05,0.96937 -0.5,0.96937 0.55,0 1.675,-0.43621 2.5,-0.96937 z m 30,0 c -0.825,-0.53316 -1.95,-0.96937 -2.5,-0.96937 -0.55,0 -0.325,0.43621 0.5,0.96937 0.825,0.53316 1.95,0.96937 2.5,0.96937 0.55,0 0.325,-0.43621 -0.5,-0.96937 z m -19,-5 c 0.825,-0.53316 1.05,-0.96937 0.5,-0.96937 -0.55,0 -1.675,0.43621 -2.5,0.96937 -0.825,0.53316 -1.05,0.96937 -0.5,0.96937 0.55,0 1.675,-0.43621 2.5,-0.96937 z m 8,0 c -0.825,-0.53316 -1.95,-0.96937 -2.5,-0.96937 -0.55,0 -0.325,0.43621 0.5,0.96937 0.825,0.53316 1.95,0.96937 2.5,0.96937 0.55,0 0.325,-0.43621 -0.5,-0.96937 z m 21.64614,-94.37927 c -14.06111,-20.00859 -25.69626,-36.80197 -25.8559,-37.3186 -0.26199,-0.84791 33.99527,-51.10286 36.82669,-54.02427 0.65147,-0.67218 8.22981,-11.13468 16.84076,-23.25 l 15.65626,-22.02786 29.76021,0 29.7602,0 11.10373,24.72347 c 6.10704,13.59791 10.9569,24.96104 10.77745,25.25139 -0.17945,0.29035 -11.84172,5.70229 -25.91616,12.02653 l -25.58989,11.49861 -0.005,25.53677 -0.005,25.53678 -23.08458,24.21322 c -12.69601,13.31728 -23.44835,24.21323 -23.89359,24.21323 -0.44524,0 -12.31406,-16.37067 -26.37518,-36.37927 z M 0.24825885,772.88309 0.50308836,673.23211 23.445771,662.87578 c 12.618476,-5.69598 23.275018,-10.01554 23.681205,-9.59902 0.406188,0.41653 5.683534,11.68437 11.727438,25.03966 l 10.988915,24.28233 -11.42012,25.19824 c -6.281067,13.85904 -11.420121,25.50232 -11.420121,25.87397 0,0.37165 -4.963658,11.61044 -11.030351,24.97509 l -11.030351,24.29937 10.955277,24.04433 c 6.025402,13.22438 10.637018,24.37387 10.248036,24.77665 -0.756582,0.7834 -44.6162578,20.76768 -45.57902242,20.76768 -0.31528599,0 -0.45857397,-44.84294 -0.31841773,-99.65099 z M 377.00309,863.03612 c -11.825,-5.1518 -22.04497,-9.73481 -22.71105,-10.18447 -0.88112,-0.59484 1.75926,-7.35588 9.69196,-24.81757 l 10.90301,-24 25.15256,0 25.15257,0 10.40548,22.89751 c 5.72301,12.59363 10.40547,23.40078 10.40547,24.0159 0,1.19296 -43.80452,21.63158 -46.12442,21.52106 -0.75657,-0.036 -11.05058,-4.28064 -22.87558,-9.43243 z m 201,0.0429 c -11.275,-5.14257 -33.325,-15.17463 -49,-22.29347 l -28.5,-12.94335 0,-24.87416 0,-24.87416 25.94008,-11.78138 c 19.17874,-8.71053 26.1472,-11.45518 26.73469,-10.52992 2.59961,4.09423 -0.51223,-3.42281 -10.80971,-26.1122 -6.39922,-14.09999 -11.64922,-26.10195 -11.66667,-26.67101 -0.0365,-1.19148 21.11372,-48.58543 22.18453,-49.71159 0.39027,-0.41044 11.03877,3.93111 23.66333,9.64789 l 22.95375,10.39419 0.25483,99.60211 c 0.14016,54.78116 -0.0848,99.57851 -0.5,99.54966 -0.41516,-0.0288 -9.97983,-4.26 -21.25483,-9.40256 z m -21.03063,-20.04494 c 0,-0.55 -0.43621,-0.325 -0.96937,0.5 -0.53316,0.825 -0.96937,1.95 -0.96937,2.5 0,0.55 0.43621,0.325 0.96937,-0.5 0.53316,-0.825 0.96937,-1.95 0.96937,-2.5 z m 10,-22 c 0,-0.55 -0.43621,-0.325 -0.96937,0.5 -0.53316,0.825 -0.96937,1.95 -0.96937,2.5 0,0.55 0.43621,0.325 0.96937,-0.5 0.53316,-0.825 0.96937,-1.95 0.96937,-2.5 z m 1.1527,-34.175 c -1.17884,-2.02721 -1.46351,-1.37835 -0.49853,1.13634 0.34294,0.8937 0.83419,1.41426 1.09166,1.15679 0.25747,-0.25747 -0.009,-1.28938 -0.59313,-2.29313 z m -5,-11 c -1.17884,-2.02721 -1.46351,-1.37835 -0.49853,1.13634 0.34294,0.8937 0.83419,1.41426 1.09166,1.15679 0.25747,-0.25747 -0.009,-1.28938 -0.59313,-2.29313 z m -5,-11 c -1.17884,-2.02721 -1.46351,-1.37835 -0.49853,1.13634 0.34294,0.8937 0.83419,1.41426 1.09166,1.15679 0.25747,-0.25747 -0.009,-1.28938 -0.59313,-2.29313 z m -134.85763,-22.09093 -23.23555,-10.52778 -0.26445,-29.93371 -0.26444,-29.93372 -21.9695,-9.93892 c -12.08322,-5.46641 -22.37322,-10.34266 -22.86666,-10.8361 -0.52955,-0.52955 3.55542,-10.76318 9.9695,-24.97547 l 10.86666,-24.07831 99.25,-0.005 c 54.5875,-0.003 99.25,0.28384 99.25,0.63689 0,0.35306 -4.78594,11.30472 -10.63543,24.33701 l -10.63542,23.69508 -26.25316,-11.87104 -26.25315,-11.87104 -25.86142,11.65549 c -14.22378,6.41052 -26.19927,11.96119 -26.6122,12.33482 -0.41293,0.37363 4.4092,12.05448 10.71585,25.95745 l 11.46663,25.27813 -11.0301,24.67109 c -6.06656,13.5691 -11.33869,24.955 -11.71585,25.30201 -0.37716,0.34701 -11.14175,-4.10658 -23.92131,-9.89685 z m 19.85763,-100.90907 c -1.17884,-2.02721 -1.46351,-1.37835 -0.49853,1.13634 0.34294,0.8937 0.83419,1.41426 1.09166,1.15679 0.25747,-0.25747 -0.009,-1.28938 -0.59313,-2.29313 z m -5,-11 c -1.17884,-2.02721 -1.46351,-1.37835 -0.49853,1.13634 0.34294,0.8937 0.83419,1.41426 1.09166,1.15679 0.25747,-0.25747 -0.009,-1.28938 -0.59313,-2.29313 z m -5,-11 c -1.17884,-2.02721 -1.46351,-1.37835 -0.49853,1.13634 0.34294,0.8937 0.83419,1.41426 1.09166,1.15679 0.25747,-0.25747 -0.009,-1.28938 -0.59313,-2.29313 z M 145.75309,726.00349 c -8.6625,-12.3664 -15.75,-23.09212 -15.75,-23.83493 0,-2.09883 21.95742,-49.0887 23.12837,-49.49575 0.57159,-0.1987 -7.66096,-4.28639 -18.29456,-9.08376 -10.63359,-4.79736 -22.82131,-10.34301 -27.08381,-12.32366 l -7.75,-3.60117 0,-12.56507 0,-12.56507 62.25,0.005 62.25,0.005 10.85629,24.05535 c 5.97095,13.23044 10.62673,24.2849 10.34617,24.56546 -0.43537,0.43537 -23.11614,11.06249 -40.45246,18.95408 l -5.25,2.38983 -0.14011,9.26261 c -0.0771,5.09444 -0.41455,18.67198 -0.75,30.17232 l -0.60989,20.90972 -17.40712,7.84028 c -9.57391,4.31216 -17.89891,7.82989 -18.5,7.81717 -0.60108,-0.0127 -8.18038,-10.14107 -16.84288,-22.50747 z m 12.21937,-84.96941 c 0,-0.55 -0.43621,-0.325 -0.96937,0.5 -0.53316,0.825 -0.96937,1.95 -0.96937,2.5 0,0.55 0.43621,0.325 0.96937,-0.5 0.53316,-0.825 0.96937,-1.95 0.96937,-2.5 z m 5,-11 c 0,-0.55 -0.43621,-0.325 -0.96937,0.5 -0.53316,0.825 -0.96937,1.95 -0.96937,2.5 0,0.55 0.43621,0.325 0.96937,-0.5 0.53316,-0.825 0.96937,-1.95 0.96937,-2.5 z m 5,-11 c 0,-0.55 -0.43621,-0.325 -0.96937,0.5 -0.53316,0.825 -0.96937,1.95 -0.96937,2.5 0,0.55 0.43621,0.325 0.96937,-0.5 0.53316,-0.825 0.96937,-1.95 0.96937,-2.5 z m 100.66711,79.86388 c -8.61142,-18.05833 -20.71422,-46.67087 -20.01214,-47.31118 1.20442,-1.09846 50.13204,-23.0527 51.37566,-23.0527 1.19215,0 50.14002,21.92837 51.30919,22.98623 0.44505,0.40268 -4.24604,12.04551 -10.42465,25.87296 l -11.23382,25.14081 -29.64015,0 -29.64015,0 -1.73394,-3.63612 z"
       style="fill:#999999" />
    <path
       inkscape:connector-curvature="0"
       id="path7200"
       d="m 100.22012,1189.9249 0.27988,-12.6131 25,-11.3498 c 13.75,-6.2424 25.51328,-11.3665 26.14063,-11.3869 0.91074,-0.03 22.35937,45.469 22.35937,47.4305 0,0.2929 -16.66344,0.5325 -37.02988,0.5325 l -37.029871,0 0.279871,-12.6132 z m 335.76865,-11.1368 c 5.92268,-13.0625 11.22915,-23.75 11.79215,-23.75 0.56301,0 12.54049,5.175 26.61662,11.5 l 25.59297,11.5 0.005,12.25 0.005,12.25 -37.38986,0 -37.38986,0 10.76849,-23.75 z m -168.1804,-80 c -0.91489,-2.0625 -3.51614,-8.025 -5.78056,-13.25 -2.26442,-5.225 -5.21726,-11.8647 -6.56187,-14.755 -5.23866,-11.2604 -7.56803,-17.5415 -6.78411,-18.2932 0.44999,-0.4315 12.18749,-5.9691 26.08332,-12.3058 l 25.26514,-11.5213 30.23486,13.5329 c 16.62917,7.4431 30.57965,13.8573 31.00107,14.2538 0.42142,0.3966 -6.51788,10.9287 -15.42068,23.4048 l -16.18689,22.6838 -30.09343,0 -30.09342,0 -1.66343,-3.75 z M -6.2245283e-7,1003.3217 c 0,-57.27208 0.23799000245283,-69.90626 1.30908002245283,-69.49525 7.31326,2.80636 44.6909196,20.23911 44.6909196,20.84362 0,0.43747 -4.725,11.24182 -10.5,24.00968 -5.775,12.76785 -10.5,23.70005 -10.5,24.29375 0,0.5937 4.89606,11.8761 10.88012,25.072 5.98407,13.1959 10.82157,24.0479 10.75,24.1154 -0.0716,0.068 -10.59262,4.8558 -23.38012,10.6406 L -6.2245283e-7,1073.3193 l 0,-69.9976 z M 576,1062.4662 c -11.825,-5.4342 -21.81872,-10.0035 -22.20827,-10.1542 -0.38955,-0.1506 3.58081,-9.7239 8.82301,-21.2739 5.2422,-11.55 10.2124,-22.6628 11.04488,-24.6951 l 1.51362,-3.6951 -10.58662,-23.44131 C 558.76398,966.3139 554,955.333 554,954.80461 c 0,-0.74566 35.65995,-17.51545 44.25,-20.80943 1.65633,-0.63515 1.75,3.05457 1.75,68.93592 0,55.07 -0.26105,69.587 -1.25,69.5112 -0.6875,-0.053 -10.925,-4.542 -22.75,-9.9761 z m -141.32069,-10.7579 c -1.85564,-2.5686 -10.0375,-14.1202 -18.1819,-25.6702 -8.14441,-11.55 -15.16797,-21.4718 -15.60792,-22.0485 -0.67815,-0.8889 31.36652,-48.0312 35.54018,-52.28472 1.08663,-1.10742 6.45352,0.9849 31.68925,12.35426 16.7096,7.5281 30.7474,14.02937 31.19513,14.44725 0.44772,0.41789 0.49301,11.82229 0.10063,25.34311 l -0.71342,24.5833 -14.13962,6.4922 c -7.77679,3.5706 -21.4226,9.8584 -30.32403,13.9728 l -16.18441,7.4807 -3.37389,-4.6702 z M 173.64193,999.78809 c -6.72217,-13.11597 -20.62958,-44.65716 -19.97189,-45.29507 0.99845,-0.9684 45.18734,-20.95493 46.32996,-20.95493 0.759,0 45.16967,19.84927 45.79892,20.46975 0.1644,0.16211 -4.49305,11.14774 -10.3499,24.4125 l -10.64881,24.11776 -24.87442,0 -24.87443,0 -1.40943,-2.75001 z M 273,965.7811 c -14.025,-6.37392 -25.64589,-11.6945 -25.82419,-11.82351 -0.17831,-0.129 4.8195,-11.41367 11.10625,-25.07703 l 11.43045,-24.84247 29.92575,-0.26434 29.92575,-0.26434 16.26963,23.12937 c 8.9483,12.72115 16.1339,23.21651 15.968,23.32301 -2.12143,1.3619 -61.35263,27.55335 -62.17298,27.49228 C 299.0079,977.40787 287.025,972.15502 273,965.7811 Z M 226.68696,840.08102 C 212.55913,820.00651 201,803.12086 201,802.55736 c 0,-0.96921 32.92784,-49.12511 35.39195,-51.75959 0.9116,-0.97462 7.79518,1.75349 32.13408,12.73542 l 30.97397,13.97572 0.23037,25.26459 0.23037,25.26459 -22.91183,23.97715 c -12.60151,13.18744 -23.30854,24.10939 -23.79341,24.27102 -0.48487,0.16162 -12.44072,-16.13074 -26.56854,-36.20524 z M -6.2245272e-7,802.61014 l 0,-69.92795 L 23.172109,743.11558 c 12.74466,5.73837 23.31307,10.57435 23.48534,10.74663 0.17228,0.17228 -4.67334,11.26418 -10.76805,24.64869 l -11.08129,24.33545 4.53503,10.09587 c 2.49426,5.55273 7.46131,16.50652 11.03789,24.34176 5.7821,12.66689 6.31533,14.34559 4.81092,15.14544 -2.68133,1.42557 -44.25852962,20.10867 -44.74966962,20.10867 -0.24325,0 -0.44228000245272,-31.46758 -0.44228000245272,-69.92795 z M 581,864.41041 c -9.625,-4.39627 -19.83568,-9.05384 -22.69039,-10.35016 l -5.19039,-2.35693 10.94039,-24.02604 C 570.07682,814.46296 575,803.27112 575,802.80653 c 0,-0.46459 -4.91159,-11.62754 -10.91463,-24.80657 -6.00305,-13.17903 -10.8055,-24.07192 -10.67211,-24.20643 0.13338,-0.1345 10.66997,-4.93958 23.41463,-10.67795 L 600,732.68219 l 0,69.92795 c 0,38.46037 -0.3375,69.8977 -0.75,69.86072 -0.4125,-0.037 -8.625,-3.66418 -18.25,-8.06045 z M 423.25,742.71701 400,732.18516 l 0,-29.65771 0,-29.6577 8.75,-4.09209 c 4.8125,-2.25065 11,-5.08518 13.75,-6.29895 2.75,-1.21378 8.31696,-3.7572 12.37102,-5.65205 12.54523,-5.86359 10.71933,-7.48664 23.70805,21.0743 l 11.30694,24.86288 -11.04058,24.63712 c -6.07232,13.55042 -11.33418,24.90955 -11.69301,25.24252 -0.35883,0.33296 -11.11492,-4.13395 -23.90242,-9.92647 z M 146,726.26813 c -8.525,-12.21016 -15.6385,-22.73314 -15.80777,-23.38441 -0.43396,-1.66962 22.07981,-50.34563 23.286,-50.34563 0.54499,0 11.19941,4.6125 23.67648,10.25 l 22.68558,10.25 -0.55558,29.5 c -0.30557,16.225 -0.69915,29.66701 -0.87461,29.87113 -0.67843,0.78923 -34.83953,16.12696 -35.84557,16.09402 C 161.97904,748.48404 154.525,738.47828 146,726.26813 Z M 259.08098,677.4532 c -6.18449,-13.79669 -10.98872,-25.34071 -10.67606,-25.65337 0.80884,-0.80884 50.60989,-23.26174 51.59508,-23.26174 2.39606,0 51.48588,23.13624 51.40224,24.22609 -0.0538,0.70065 -4.99284,12.18641 -10.97572,25.52391 l -10.87797,24.25 -29.61152,0 -29.61152,0 -11.24453,-25.08489 z M 126.48109,639.66495 100.5,627.92067 l -0.27988,-12.69129 -0.279871,-12.69129 37.432651,0 37.43265,0 -11.0212,24.25 c -6.06165,13.3375 -11.08891,24.33351 -11.17167,24.43557 -0.0828,0.10207 -11.84198,-5.09935 -26.13159,-11.55871 z m 309.80098,-12.76186 -11.0741,-24.365 37.42589,0 37.42589,0 -0.27987,12.60535 -0.27988,12.60535 -22,9.94279 c -12.1,5.46853 -23.83236,10.76037 -26.07192,11.75965 l -4.07192,1.81685 -11.07409,-24.36499 z"
       style="fill:#4d4d4d" />
  </g>
  <path
     style="fill:#f9f9f9"
     d="m 0,465.0169 0,-134.98741 5.25,2.34418 c 2.88752,1.28929 13.47776,6.06834 23.534,10.62009 10.05616,4.55175 18.408,8.1037 18.55968,7.89321 0.15168,-0.21048 5.30896,-11.57466 11.46064,-25.25371 L 69.9892,300.76223 58.89984,276.13326 c -6.0992,-13.54595 -11.40472,-24.96444 -11.79008,-25.37443 -0.38536,-0.41 -9.23016,3.12819 -19.6552,7.86263 C 17.02952,263.3559 6.58752,268.06286 4.25,269.08136 L 0,270.9332 0,135.46444 0,-0.0043045 112.65192,0.2499835 225.30384,0.5042715 236.2164,24.623359 247.12896,48.742456 273.56448,36.788952 300,24.835447 326.43552,36.788952 352.87104,48.742456 363.7836,24.623367 374.69616,0.5042715 487.34808,0.2499835 600,-0.0043045 l 0,135.4916745 0,135.49168 -5.25,-2.34238 c -2.88752,-1.28832 -13.46824,-6.07688 -23.5128,-10.64124 -10.04456,-4.56437 -18.42384,-8.11712 -18.62064,-7.895 -0.31848,0.3594 -21.19496,46.7428 -22.28912,49.52204 -0.47744,1.21255 3.79752,11.003 19.3108,44.22584 2.11848,4.53696 3.89416,7.14786 4.64552,6.83079 0.66896,-0.28228 9.31624,-4.20156 19.21624,-8.70951 9.9,-4.50796 19.91248,-9.02832 22.25,-10.04526 l 4.25,-1.84899 0,134.96445 0,134.96451 -112.75,-0.011 -112.75,-0.011 -10.89192,-24.04151 c -6.38784,-14.09969 -11.35016,-23.8474 -12,-23.57209 -0.60944,0.2582 -12.0764,5.45689 -25.48208,11.5526 -13.40568,6.0956 -25.1624,11.083 -26.126,11.083 -0.9636,0 -12.72032,-4.9874 -26.126,-11.08311 -13.40568,-6.09569 -24.87344,-11.2946 -25.48384,-11.5532 -0.65264,-0.27649 -5.584,9.43931 -11.96984,23.58311 l -10.85992,24.0532 -112.78024,0 L 0,600.0043 0,465.0169 Z m 458.77016,61.2374 c 6.19128,-13.6125 11.25072,-25.05331 11.24336,-25.4241 -0.028,-1.408 -31.15608,-45.3387 -32.306,-45.5933 -0.66416,-0.1471 -9.30752,3.3315 -19.20752,7.7302 l -18,7.9976 -0.23976,29.7698 -0.23984,29.7698 22.73984,10.2268 c 12.50688,5.6248 23.19272,10.23729 23.7464,10.25 0.55368,0.013 6.07224,-11.11431 12.26352,-24.7268 z M 85.5,432.428 l 14,-6.3007 0.25088,-25.3115 0.2508,-25.31153 -26.10952,-11.84134 c -14.36016,-6.51274 -26.45392,-11.46274 -26.87488,-11 -1.17448,1.29104 -21.35152,46.36877 -21.34376,47.68427 0,0.6364 4.87704,12.0065 10.82944,25.2668 l 10.82272,24.1098 12.08712,-5.4976 C 66.0608,441.2026 77.8,435.8933 85.5,432.428 Z M 299.76672,400.72779 299.5,375.8953 273.0852,363.94795 c -14.52816,-6.57105 -26.48664,-11.83404 -26.5744,-11.69552 -0.0878,0.13851 -4.96856,11.11702 -10.84616,24.39668 l -10.68648,24.14479 11.07552,24.4724 11.0756,24.4724 26.45208,-12.0892 26.45208,-12.0891 -0.26672,-24.8326 z M 226.2052,302.40686 C 240.11736,287.77828 251.5,275.35075 251.5,274.79013 c 0,-1.19317 -50.72128,-73.72598 -51.58064,-73.76171 -0.9056,-0.0377 -51.41936,72.17542 -51.41936,73.50764 0,1.3408 50.31864,54.46821 51.58856,54.46821 0.452,0 12.20448,-11.96884 26.11664,-26.59741 z M 432.52296,182.75427 c 4.30384,-9.4875 9.2788,-20.44298 11.05544,-24.34551 l 3.23032,-7.09552 -23.54064,-10.62969 -23.54064,-10.62969 -23.36368,10.58585 C 363.51368,146.46193 353,151.41147 353,151.63869 c 0,0.51048 18.69048,41.81797 20.63984,45.61558 l 1.41152,2.75 24.8232,0 24.82328,0 7.82512,-17.25 z M 129.56808,161.46512 c 16.45064,-7.44654 30.27096,-13.89988 30.71184,-14.34075 0.44088,-0.44087 -6.5108,-11.22325 -15.44816,-23.96084 l -16.24984,-23.15925 -29.08448,0 -29.08448,0 -11.20648,24.98204 c -6.1636,13.74013 -11.19032,25.32763 -11.17064,25.75 0.02,0.42237 11.6072,6.01596 25.75,12.43018 14.1428,6.41423 25.74968,11.70173 25.79304,11.75 0.0432,0.0483 13.53856,-6.00485 29.9892,-13.45138 z"
     id="path7206-3"
     inkscape:connector-curvature="0" />
  <path
     style="fill:#f2f2f2"
     d="m -2.4e-4,465.49997 c 0,-74.17173 0.38488,-134.52988 0.85792,-134.52988 0.66856,0 44.87656,19.72331 45.88408,20.47108 0.13312,0.0988 -4.06792,9.59571 -9.33568,21.10427 -5.26768,11.50856 -10.23304,22.53741 -11.03408,24.50855 -1.45632,3.58349 -1.45512,3.58679 9.55088,27.88189 6.054,13.3639 11.16544,24.4561 11.35864,24.6493 0.1932,0.1933 12.02136,-4.9436 26.2848,-11.4152 l 25.93344,-11.7666 0.29712,-25.4666 0.29704,-25.46668 25.52248,-11.45798 c 14.03728,-6.3019 25.71904,-11.77611 25.95928,-12.16492 0.24032,-0.38881 -3.40288,-9.40771 -8.096,-20.04201 -4.6932,-10.6343 -9.75856,-22.13549 -11.25648,-25.55821 l -2.72344,-6.22311 -29.62352,-0.0269 -29.62344,-0.0269 -10.57608,-23.25 c -5.8168,-12.7875 -10.93624,-24.22195 -11.37656,-25.40989 -0.77224,-2.08381 -1.60704,-1.79319 -23.69792,8.25 -12.5936,5.72544 -23.28112,10.40989 -23.75,10.40989 -0.46888,0 -0.85248,-60.75 -0.85248,-135 l 0,-134.9999945 12.35032,0 12.35032,0 10.84904,24.0641675 c 5.96688,13.235305 11.152,24.251481 11.52248,24.480409 0.3704,0.228936 12.42,-4.862448 26.77688,-11.314168 l 26.10344,-11.730409 0.024,-12.75 0.024,-12.7499995 62.34952,0 62.34952,0 10.74848,23.7499995 c 5.91168,13.062497 11.05936,24.082497 11.43936,24.488897 0.38,0.406392 12.08344,-4.431104 26.00768,-10.75 13.92424,-6.318896 26.10944,-11.488897 27.07816,-11.488897 2.49144,0 51.1424,22.136361 51.66936,23.509793 0.23912,0.623056 -4.13032,11.225736 -9.70976,23.561516 -5.57944,12.33578 -10.57464,23.61998 -11.1004,25.076 -0.82392,2.281566 0.57232,6.041516 10.106,27.214936 6.08416,13.51219 11.06024,24.92091 11.05808,25.35269 0,0.43178 -11.58968,6.01065 -25.75,12.39748 l -25.746,11.61241 0,25.73041 0,25.7304 25.4264,11.91697 c 13.98456,6.55432 25.56296,12.05342 25.72976,12.22022 0.1668,0.1668 -4.6376,11.25099 -10.67648,24.63154 -6.0388,13.38054 -10.97968,24.73768 -10.97968,25.23808 0,0.50039 7.04232,10.8993 15.64952,23.10868 8.60728,12.20938 15.6948,22.7765 15.75,23.4825 0.1068,1.36431 -58.0524,28.212 -61.13672,28.2222 -0.96952,0.003 -13.35696,-5.24013 -27.5276,-11.65186 C 258.5648,356.9123 246.766,351.87093 246.516,352.12098 c -0.25008,0.25005 -5.1408,11.00589 -10.86832,23.90186 l -10.41368,23.44724 -25.172,0.5 -25.17192,0.5 -13.4732,30 c -7.41032,16.5 -13.89032,30.9 -14.40016,32 -0.50976,1.1 -4.5364,10.1535 -8.94808,20.1188 l -8.0212,18.1187 10.97864,24.7303 c 6.03824,13.6017 11.20096,25.0902 11.4728,25.53 0.27176,0.4398 11.12392,-3.99231 24.11584,-9.8491 l 23.6216,-10.6487 -0.45192,-29.6695 -0.45192,-29.6695 18.58384,-8.2153 c 10.2212,-4.5183 32.90176,-14.7224 50.40136,-22.6756 l 31.81744,-14.4604 30.18256,13.5308 c 16.6004,7.442 30.78464,13.6723 31.52048,13.8452 0.79032,0.1856 8.86792,-10.5159 19.73368,-26.144 15.99952,-23.012 18.23488,-26.6895 17.162,-28.2327 -0.67848,-0.9759 -9.03856,-12.86693 -18.57792,-26.42444 -13.08496,-18.59672 -17.01408,-24.85744 -16,-25.49464 0.73936,-0.46454 9.1068,-4.32976 18.59432,-8.58938 l 17.25,-7.74476 -0.024,-30.0279 -0.024,-30.02789 -23.46216,-10 c -12.90416,-5.5 -23.46232,-10.45 -23.46256,-11 -2.4e-4,-0.55 4.92056,-11.8 10.93512,-25 l 10.93568,-24 25.30096,-0.29004 25.30096,-0.29004 10.5,-23.53717 c 5.77504,-12.94544 10.96368,-23.73765 11.5304,-23.9827 0.5668,-0.24504 12.43608,4.7397 26.37632,11.07721 13.94016,6.33751 25.68752,11.52274 26.10496,11.52274 1.822,0 52.47136,-23.84131 52.31832,-24.62696 -0.093,-0.48017 -5.17648,-11.93198 -11.29568,-25.44846 l -11.12584,-24.57538 10.97144,-24.424576 c 6.03432,-13.433522 11.11728,-24.993618 11.29568,-25.689106 0.204,-0.795304 -9.13792,-5.572224 -25.1756,-12.873424 -14.02496,-6.384888 -26.02216,-11.628353 -26.66032,-11.652137 -1.78696,-0.06656 -53.33968,23.475505 -52.9372,24.174385 2.8692,4.98248 22.6336,50.572788 22.29712,51.432448 -0.84992,2.17147 -21.9856,49.17804 -22.26656,49.52173 -0.15216,0.18616 -10.77432,-4.40483 -23.6048,-10.20221 l -23.32824,-10.54069 -0.2644,-29.83464 -0.26432,-29.834656 -23.05496,-10.420742 C 364.2364,54.244244 353.72264,49.310836 353.5528,49.012516 c -0.16984,-0.29832 4.6544,-11.454904 10.72048,-24.792401 l 11.0292,-24.2499995 112.34888,0 112.34888,0 0,134.9999945 c 0,74.25 -0.33096,135 -0.7356,135 -0.40456,0 -22.65448,-9.9 -49.44416,-22 -26.78984,-12.1 -49.32016,-22 -50.06744,-22 -2.98248,0 -52.24456,22.98778 -51.92008,24.22813 0.18296,0.69953 5.29416,12.241 11.35808,25.64772 l 11.02544,24.37584 -3.9316,5.62416 c -2.16232,3.09328 -6.5784,9.44915 -9.8136,14.12415 -3.23512,4.675 -8.71456,12.52061 -12.17656,17.43469 -3.462,4.91408 -6.29448,9.21323 -6.29448,9.55367 0,0.82651 60.27208,28.01164 62.10464,28.01164 0.78784,0 23.18976,-9.9 49.782,-22 26.59216,-12.1 48.74624,-22 49.23136,-22 0.50488,0 0.882,57.50224 0.882,134.50431 l 0,134.5043 -112.64832,-0.2543 -112.64832,-0.2543 -10.78208,-23.807 -10.782,-23.807 7.6804,-3.5031 c 4.22416,-1.9268 14.76568,-6.6889 23.42552,-10.5825 l 15.7452,-7.0793 23.55008,10.6394 c 12.95264,5.8518 23.91504,10.6395 24.36096,10.6395 0.44584,0 12.22928,5.175 26.1852,11.5 13.956,6.325 25.6996,11.5 26.0968,11.5 2.01656,0 51.81656,-23.4075 51.81656,-24.3553 0,-0.609 -5.04192,-12.2532 -11.20408,-25.876 l -11.20408,-24.7687 -29.65696,0 -29.65688,0 -15.38896,-22.1303 c -8.464,-12.1716 -15.68176,-22.5881 -16.03944,-23.1478 -0.39472,-0.6175 -7.91536,2.1848 -19.13536,7.1303 -10.1668,4.4813 -19.14584,8.1478 -19.9532,8.1478 -0.80744,0 -9.29648,-3.5685 -18.86456,-7.9299 -16.21656,-7.3921 -17.50544,-7.816 -19.00328,-6.25 -2.51304,2.6274 -31.8932,44.1337 -31.8932,45.0566 0,0.4529 4.71768,11.3136 10.48376,24.1347 5.76608,12.82109 10.72392,24.0676 11.01736,24.9922 0.43448,1.369 -4.29768,3.8665 -25.49632,13.456 l -26.02992,11.775 -26.36888,-11.9628 -26.36888,-11.9629 -10.92912,24.0956 -10.9292,24.0955 -62.65856,0.25749 -62.65856,0.25751 -0.28088,-12.0252 -0.2808,-12.02531 -26.41472,-11.9842 c -14.52808,-6.59129 -26.4852,-11.8708 -26.57144,-11.7322 -0.0862,0.13851 -4.91368,10.82691 -10.72784,23.75191 l -10.57104,23.5 -12.60752,0.27989 -12.60744,0.27991 0,-134.52991 z m 533.91608,25.97011 c 0,-0.55 -0.86216,0.575 -1.91608,2.5 -1.05392,1.925 -1.91616,3.95 -1.91616,4.5 0,0.55 0.86232,-0.575 1.91616,-2.5 1.05392,-1.925 1.91608,-3.95 1.91608,-4.5 z M 226.32168,302.94452 c 14.12296,-14.86407 25.67808,-27.46463 25.67808,-28.00125 0,-0.97183 -30.39632,-44.41692 -70.9956,-101.47317 -34.93984,-49.10263 -50.18344,-70.80289 -50.72168,-72.20554 -0.4088,-1.06541 -6.34616,-1.271874 -30.45248,-1.05895 l -29.94464,0.2645 -11.47864,25.48805 c -6.3132,14.01844 -11.12496,25.61577 -10.6928,25.77185 0.43224,0.15607 12.03584,5.40472 25.78584,11.66366 l 25,11.37988 0.6252,17.84827 c 0.34384,9.81656 0.69624,21.22328 0.78304,25.34828 l 0.15792,7.5 28.71688,30.16207 c 15.79432,16.58915 38.16696,40.09462 49.71696,52.23439 11.55,12.13976 21.25736,22.07933 21.57192,22.08792 0.31456,0.009 12.12704,-12.14589 26.25,-27.00996 z M 253.37,123.60837 269.94224,100.24665 259.85984,77.858374 C 254.31448,65.544828 249.14928,54.014644 248.38168,52.235756 l -1.39568,-3.234352 -5.74312,2.537288 c -3.15872,1.395504 -13.73064,6.20444 -23.49312,10.68652 l -17.75,8.149242 0,25.15825 c 0,13.837046 -0.27192,27.141816 -0.60416,29.566176 l -0.60424,4.40792 18.85424,8.64503 c 10.36976,4.75476 18.9212,8.684 19.00312,8.73165 0.082,0.0476 7.60656,-10.42616 16.72128,-23.27511 z"
     id="path7204-6"
     inkscape:connector-curvature="0" />
  <path
     style="fill:#e6e6e6"
     d="m 100.22313,587.31902 0.27992,-12.6849 24.89024,-11.3191 c 13.68968,-6.2254 25.54176,-11.319 26.338,-11.319 0.79632,0 12.09568,-4.7758 25.10976,-10.6129 l 23.662,-10.61291 -0.2784,-29.7674 -0.27832,-29.76739 23.27832,-10.1689 c 12.80312,-5.593 24.40336,-10.7798 25.7784,-11.5263 1.37496,-0.7465 13.4212,-6.345 26.76944,-12.441 l 24.26944,-11.0837 30.23056,13.5786 c 16.6268,7.4683 30.59784,13.9287 31.0468,14.3565 0.44896,0.4279 -6.45976,10.9631 -15.35264,23.4117 l -16.16888,22.6337 -29.82408,0 -29.82408,0 -2.68344,5.75 c -2.628,5.6311 -15.6496,34.3513 -19.60936,43.25 -1.10136,2.475 -6.67056,14.85 -12.376,27.5 l -10.3736,23 -62.582,0.254 -62.582004,0.254 0.279924,-12.685 z m 110.77992,-52.32301 c -0.82504,-0.5332 -1.95,-0.9694 -2.5,-0.9694 -0.55,0 -0.32504,0.43621 0.5,0.9694 0.82496,0.53311 1.95,0.9694 2.5,0.9694 0.55,0 0.32496,-0.43629 -0.5,-0.9694 z m 216.566,59.25 c 12.21528,-27.64429 19.09248,-42.19369 19.934,-42.1722 0.55,0.014 12.6688,5.31971 26.93064,11.7906 l 25.93072,11.76511 26.01336,-11.8227 c 14.30736,-6.5025 26.32456,-11.4825 26.70504,-11.06681 0.70664,0.77241 20.92024,46.00141 20.92024,46.81031 0,0.2451 -33.51936,0.4457 -74.48744,0.4457 l -74.48736,0 2.5408,-5.75 z m -404.566004,-53.62219 -22.5000002,-10.233 -0.25488,-99.6974 c -0.14016,-54.8336 0,-99.69742 0.30912,-99.69742 1.69584,0 45.4457602,20.42643 45.4457602,21.21821 0,0.51967 -4.72504,11.37327 -10.5,24.11911 -5.77504,12.74584 -10.5,23.5581 -10.5,24.0272 0,0.9056 12.33592,28.6344 32.6108,73.3027 l 12.3312,27.1672 -11.16248,25.0828 c -6.13944,13.7955 -11.63888,25.0515 -12.22104,25.0132 -0.58216,-0.038 -11.18352,-4.6745 -23.55848,-10.3026 z m 526.970324,3.6222 c -1.662,-3.7125 -6.76272,-15.0242 -11.33504,-25.1372 l -8.31336,-18.3872 11.06224,-24.8325 c 6.35928,-14.2752 11.68176,-24.9517 12.51928,-25.113 0.80136,-0.1544 -10.99904,-5.9015 -26.2232,-12.7713 l -27.68024,-12.4907 -0.18632,-8.0091 -0.18632,-8.009 -0.56368,8.3803 -0.56368,8.3804 -30,13.7492 c -16.5,7.562 -30.30264,13.5734 -30.67248,13.3585 -0.6476,-0.3761 -22.00984,-30.5861 -50.46664,-71.36842 -7.48368,-10.725 -15.98792,-22.88899 -18.8984,-27.03109 l -5.29176,-7.5311 18.26056,-8.2189 c 10.0432,-4.5204 18.49512,-8.21891 18.782,-8.21891 0.2868,0 22.89384,10.11279 50.23776,22.47286 l 49.71616,22.47287 21.03432,-9.53712 c 11.56888,-5.24541 24.69376,-11.25129 29.1664,-13.34641 15.74304,-7.3745 48.3636,-22.0622 48.99888,-22.0622 0.3536,0 0.52816,44.85814 0.388,99.68472 l -0.2548,99.6848 -22.5,10.2715 c -12.37504,5.6493 -22.83928,10.2911 -23.254,10.3152 -0.41464,0.024 -2.11368,-2.9937 -3.77568,-6.7062 z m 45.02968,-75.75 c -1.37504,-0.786 -2.95,-1.4291 -3.5,-1.4291 -0.55,0 0.12496,0.6431 1.5,1.4291 1.37496,0.786 2.95,1.4291 3.5,1.4291 0.55,0 -0.12504,-0.6431 -1.5,-1.4291 z m -11,-5 c -1.37504,-0.786 -2.95,-1.4291 -3.5,-1.4291 -0.55,0 0.12496,0.6431 1.5,1.4291 1.37496,0.786 2.95,1.4291 3.5,1.4291 0.55,0 -0.12504,-0.6431 -1.5,-1.4291 z m -9,-4 c -1.37504,-0.786 -2.95,-1.4291 -3.5,-1.4291 -0.55,0 0.12496,0.6431 1.5,1.4291 1.37496,0.786 2.95,1.4291 3.5,1.4291 0.55,0 -0.12504,-0.6431 -1.5,-1.4291 z m -11,-5 c -1.37504,-0.786 -2.95,-1.4291 -3.5,-1.4291 -0.55,0 0.12496,0.6431 1.5,1.4291 1.37496,0.786 2.95,1.4291 3.5,1.4291 0.55,0 -0.12504,-0.6431 -1.5,-1.4291 z m 7.96936,-47 c 0,-0.55 -0.43624,-0.325 -0.96936,0.5 -0.5332,0.825 -0.96944,1.95 -0.96944,2.5 0,0.55 0.43624,0.325 0.96944,-0.5 0.53312,-0.825 0.96936,-1.95 0.96936,-2.5 z m 0.15264,-14.17502 c -1.1788,-2.02721 -1.46344,-1.37835 -0.49848,1.13634 0.34296,0.8937 0.83416,1.41426 1.09168,1.15679 0.25744,-0.25747 -0.009,-1.28938 -0.5932,-2.29313 z m -14,-31 c -1.1788,-2.02721 -1.46344,-1.37835 -0.49848,1.13634 0.34296,0.8937 0.83416,1.41426 1.09168,1.15679 0.25744,-0.25747 -0.009,-1.28938 -0.5932,-2.29313 z m -432.38864,74.87122 -25.766724,-11.6958 0.266724,-24.7884 0.26664,-24.78839 16.5,-7.52359 c 9.07496,-4.13797 20.77496,-9.38268 26,-11.6549 9.66312,-4.20225 15.8068,-7.60177 11.442,-6.33129 -1.85864,0.54101 -3.1316,-1.84038 -13.14464,-24.58974 l -11.08664,-25.18877 7.14464,-10.3168 c 3.92952,-5.67424 7.762,-11.2172 8.51656,-12.31767 0.75464,-1.10048 1.14888,-2.00087 0.87616,-2.00087 -0.27264,0 -4.22792,5.4 -8.78936,12 l -8.2936,12 -29.58256,-0.003 -29.582564,-0.003 -11.30288,-25.11064 c -6.21656,-13.81085 -11.16656,-25.21632 -11,-25.3455 0.16656,-0.12918 8.40288,-3.87641 18.30288,-8.32717 9.9,-4.45077 21.46304,-9.67136 25.6956,-11.60131 l 7.69568,-3.50901 49.304324,51.58301 c 27.11744,28.37066 49.56208,51.98313 49.87712,52.47215 0.60456,0.93868 13.86256,-12.2989 38.4644,-38.40519 8.16328,-8.6625 14.9488,-15.75 15.07896,-15.75 0.13024,0 3.94832,5.2875 8.4848,11.75 4.5364,6.4625 8.732,12.08061 9.3236,12.48469 0.59152,0.40408 14.16688,0.74158 30.16736,0.75 l 29.09192,0.0153 16.24384,23.08098 c 8.93408,12.69454 16.09272,23.20852 15.90808,23.36441 -0.93368,0.78833 -60.95536,27.55463 -61.78944,27.55463 -1.28792,0 -52.2708,-22.98818 -53.49624,-24.12147 -0.52256,-0.4832 -1.42256,-0.87165 -2,-0.86323 -0.57752,0.008 -0.44552,0.39842 0.2932,0.86666 1.05096,0.66606 -0.9504,6.0496 -9.19528,24.73469 l -10.53864,23.88332 -25.28936,0.5 -25.28936,0.5 -10.95024,24.25 c -6.02264,13.33751 -11.20448,24.22571 -11.51528,24.196 -0.3108,-0.03 -12.16008,-5.31709 -26.33168,-11.7498 z M 175.00305,341.996 c 0.82496,-0.53316 1.05,-0.96937 0.5,-0.96937 -0.55,0 -1.67504,0.43621 -2.5,0.96937 -0.82504,0.53316 -1.05,0.96937 -0.5,0.96937 0.55,0 1.67496,-0.43621 2.5,-0.96937 z m 52,0 c -0.82504,-0.53316 -1.95,-0.96937 -2.5,-0.96937 -0.55,0 -0.32504,0.43621 0.5,0.96937 0.82496,0.53316 1.95,0.96937 2.5,0.96937 0.55,0 0.32496,-0.43621 -0.5,-0.96937 z m -41,-5 c 0.82496,-0.53316 1.05,-0.96937 0.5,-0.96937 -0.55,0 -1.67504,0.43621 -2.5,0.96937 -0.82504,0.53316 -1.05,0.96937 -0.5,0.96937 0.55,0 1.67496,-0.43621 2.5,-0.96937 z m 30,0 c -0.82504,-0.53316 -1.95,-0.96937 -2.5,-0.96937 -0.55,0 -0.32504,0.43621 0.5,0.96937 0.82496,0.53316 1.95,0.96937 2.5,0.96937 0.55,0 0.32496,-0.43621 -0.5,-0.96937 z m -19,-5 c 0.82496,-0.53316 1.05,-0.96937 0.5,-0.96937 -0.55,0 -1.67504,0.43621 -2.5,0.96937 -0.82504,0.53316 -1.05,0.96937 -0.5,0.96937 0.55,0 1.67496,-0.43621 2.5,-0.96937 z m 8,0 c -0.82504,-0.53316 -1.95,-0.96937 -2.5,-0.96937 -0.55,0 -0.32504,0.43621 0.5,0.96937 0.82496,0.53316 1.95,0.96937 2.5,0.96937 0.55,0 0.32496,-0.43621 -0.5,-0.96937 z m 21.64608,-94.37927 c -14.06112,-20.00859 -25.69624,-36.80197 -25.85584,-37.3186 -0.262,-0.84791 33.99528,-51.10286 36.82664,-54.02427 0.65152,-0.67218 8.22984,-11.13468 16.8408,-23.25 l 15.65624,-22.02786 29.76024,0 29.76016,0 11.10376,24.72347 c 6.10704,13.59791 10.95688,24.96104 10.77744,25.25139 -0.17944,0.29035 -11.84176,5.70229 -25.91616,12.02653 l -25.58992,11.49861 -0.008,25.53677 -0.008,25.53678 -23.08456,24.21322 c -12.696,13.31728 -23.44832,24.21323 -23.8936,24.21323 -0.4452,0 -12.31408,-16.37067 -26.3752,-36.37927 z M 0.2481658,170.34501 0.5030458,70.694027 23.445686,60.337693 c 12.61848,-5.695976 23.27504,-10.015536 23.6812,-9.599016 0.40624,0.416528 5.68352,11.684368 11.72744,25.03966 l 10.98896,24.282333 -11.42016,25.19824 c -6.28104,13.85904 -11.42008,25.50232 -11.42008,25.87397 0,0.37165 -4.96368,11.61044 -11.0304,24.97509 l -11.03032,24.29937 10.95528,24.04433 c 6.02536,13.22438 10.63704,24.37386 10.248,24.77665 -0.75656,0.7834 -44.6162402,20.76768 -45.5790402,20.76768 -0.31528,0 -0.45856,-44.84294 -0.3184,-99.65099 z M 377.00305,260.49804 c -11.82504,-5.1518 -22.04496,-9.73481 -22.71112,-10.18447 -0.88112,-0.59484 1.75928,-7.35588 9.692,-24.81757 l 10.90304,-24 25.15256,0 25.15256,0 10.40544,22.89751 c 5.72304,12.59362 10.40552,23.40078 10.40552,24.0159 0,1.19296 -43.80456,21.63158 -46.12448,21.52106 -0.75656,-0.036 -11.05056,-4.28064 -22.87552,-9.43243 z m 201,0.0429 c -11.27504,-5.14257 -33.32504,-15.17463 -49,-22.29347 l -28.5,-12.94335 0,-24.87416 0,-24.87416 25.94008,-11.78138 c 19.17872,-8.71053 26.1472,-11.45518 26.73464,-10.52992 2.5996,4.09423 -0.51224,-3.42281 -10.80968,-26.1122 -6.3992,-14.09999 -11.6492,-26.10195 -11.66664,-26.67101 -0.0368,-1.191479 21.11368,-48.585425 22.18448,-49.711585 0.39032,-0.41044 11.0388,3.931104 23.66336,9.647888 l 22.95376,10.394188 0.2548,99.602109 c 0.14016,54.78116 -0.0848,99.57851 -0.5,99.54966 -0.4152,-0.0288 -9.97984,-4.26 -21.2548,-9.40256 z M 556.97241,240.496 c 0,-0.55 -0.43624,-0.325 -0.96936,0.5 -0.5332,0.825 -0.96944,1.95 -0.96944,2.5 0,0.55 0.43624,0.325 0.96944,-0.5 0.53312,-0.825 0.96936,-1.95 0.96936,-2.5 z m 10,-22 c 0,-0.55 -0.43624,-0.325 -0.96936,0.5 -0.5332,0.825 -0.96944,1.95 -0.96944,2.5 0,0.55 0.43624,0.325 0.96944,-0.5 0.53312,-0.825 0.96936,-1.95 0.96936,-2.5 z m 1.15264,-34.175 c -1.1788,-2.02721 -1.46344,-1.37835 -0.49848,1.13634 0.34296,0.8937 0.83416,1.41426 1.09168,1.15679 0.25744,-0.25747 -0.009,-1.28938 -0.5932,-2.29313 z m -5,-11 c -1.1788,-2.02721 -1.46344,-1.37835 -0.49848,1.13634 0.34296,0.8937 0.83416,1.41426 1.09168,1.15679 0.25744,-0.25747 -0.009,-1.28938 -0.5932,-2.29313 z m -5,-11 c -1.1788,-2.02721 -1.46344,-1.37835 -0.49848,1.13634 0.34296,0.8937 0.83416,1.41426 1.09168,1.15679 0.25744,-0.25747 -0.009,-1.28938 -0.5932,-2.29313 z m -134.8576,-22.09095 -23.23552,-10.52778 -0.26448,-29.933709 -0.2644,-29.93372 -21.96952,-9.938916 c -12.0832,-5.466416 -22.3732,-10.342664 -22.86664,-10.836104 -0.5296,-0.529552 3.55536,-10.763176 9.96944,-24.975472 l 10.86672,-24.0783035 99.25,-0.0048 c 54.58744,-0.0032 99.25,0.28384 99.25,0.636888 0,0.353056 -4.786,11.3047195 -10.63544,24.3370075 l -10.63544,23.69508 -26.2532,-11.87104 -26.25312,-11.87104 -25.86144,11.655488 c -14.22376,6.41052 -26.19928,11.961192 -26.61216,12.334824 -0.41296,0.373632 4.4092,12.05448 10.71584,25.957448 l 11.46664,25.278129 -11.03008,24.67109 c -6.06656,13.5691 -11.33872,24.955 -11.71584,25.30201 -0.3772,0.34701 -11.14176,-4.10658 -23.92136,-9.89685 z m 19.8576,-100.909069 c -1.1788,-2.027208 -1.46344,-1.378352 -0.49848,1.136344 0.34296,0.893696 0.83416,1.414256 1.09168,1.156784 0.25744,-0.257464 -0.009,-1.289376 -0.5932,-2.293128 z m -5,-11 c -1.1788,-2.027208 -1.46344,-1.378352 -0.49848,1.136344 0.34296,0.893696 0.83416,1.414256 1.09168,1.156784 0.25744,-0.257464 -0.009,-1.289376 -0.5932,-2.293128 z m -5,-11 c -1.1788,-2.027208 -1.46344,-1.378352 -0.49848,1.136344 0.34296,0.893696 0.83416,1.414256 1.09168,1.156784 0.25744,-0.257464 -0.009,-1.289376 -0.5932,-2.293128 z m -287.372,106.144409 c -8.66256,-12.3664 -15.75,-23.09212 -15.75,-23.834929 0,-2.09883 21.95736,-49.088696 23.12832,-49.495752 0.5716,-0.198696 -7.66096,-4.286384 -18.29456,-9.08376 -10.6336,-4.79736 -22.82128,-10.343008 -27.08376,-12.323656 l -7.75,-3.601168 0,-12.565072 0,-12.5650715 62.25,0.0048 62.25,0.0048 10.85624,24.0553515 c 5.97096,13.23044 10.62672,24.284896 10.34616,24.565456 -0.43536,0.435376 -23.11608,11.062496 -40.4524,18.954082 l -5.25,2.38983 -0.14016,9.26261 c -0.0768,5.09444 -0.41456,18.67198 -0.75,30.172319 l -0.60984,20.90972 -17.40712,7.84028 c -9.57392,4.31216 -17.89896,7.82989 -18.5,7.81717 -0.60112,-0.0127 -8.1804,-10.14107 -16.84288,-22.50747 z m 12.21936,-84.969409 c 0,-0.55 -0.43624,-0.325 -0.96936,0.5 -0.5332,0.825 -0.96944,1.95 -0.96944,2.5 0,0.55 0.43624,0.325 0.96944,-0.5 0.53312,-0.825 0.96936,-1.95 0.96936,-2.5 z m 5,-11 c 0,-0.55 -0.43624,-0.325 -0.96936,0.5 -0.5332,0.825 -0.96944,1.95 -0.96944,2.5 0,0.55 0.43624,0.325 0.96944,-0.5 0.53312,-0.825 0.96936,-1.95 0.96936,-2.5 z m 5,-11 c 0,-0.55 -0.43624,-0.325 -0.96936,0.5 -0.5332,0.825 -0.96944,1.95 -0.96944,2.5 0,0.55 0.43624,0.325 0.96944,-0.5 0.53312,-0.825 0.96936,-1.95 0.96936,-2.5 z m 100.66712,79.86388 c -8.61144,-18.05833 -20.71424,-46.670872 -20.01216,-47.311176 1.2044,-1.098464 50.132,-23.052704 51.37568,-23.052704 1.19208,0 50.14,21.928368 51.3092,22.986232 0.44504,0.40268 -4.24608,12.045512 -10.42472,25.872958 l -11.23376,25.140808 -29.64016,0 -29.64016,0 -1.73392,-3.636118 z"
     id="path7202-7"
     inkscape:connector-curvature="0" />
  <path
     style="fill:#cccccc"
     d="m 100.22008,587.38681 0.27992,-12.6131 25,-11.3498 c 13.75,-6.2424 25.51328,-11.36651 26.14064,-11.3869 0.91072,-0.03 22.35936,45.469 22.35936,47.4305 C 174,599.7604 157.33656,600 136.97008,600 l -37.02984,0 0.27984,-12.61319 z M 435.9888,576.25 c 5.92264,-13.06249 11.22912,-23.75 11.79208,-23.75 0.56304,0 12.54056,5.175 26.61664,11.5 l 25.59296,11.5 0.008,12.25 0.008,12.25 -37.38984,0 -37.38984,0 10.76848,-23.75 z m -168.1804,-80 c -0.91496,-2.06249 -3.51616,-8.025 -5.78056,-13.25 -2.26448,-5.22499 -5.21728,-11.86469 -6.56192,-14.755 -5.23864,-11.2604 -7.568,-17.54149 -6.78408,-18.2932 0.45,-0.43149 12.18752,-5.96909 26.08328,-12.3058 l 25.2652,-11.52129 30.2348,13.53289 c 16.6292,7.44311 30.57968,13.85731 31.00112,14.2538 0.42144,0.3966 -6.51792,10.92871 -15.42072,23.4048 L 329.65864,500 l -30.09344,0 -30.09336,0 -1.66344,-3.75 z M 0,400.78361 C 0,343.51152 0.238,330.87735 1.30904,331.28836 8.62232,334.09472 46,351.52747 46,352.13198 c 0,0.43747 -4.72504,11.24182 -10.5,24.00968 -5.77504,12.76785 -10.5,23.70005 -10.5,24.29375 0,0.5937 4.89608,11.8761 10.88008,25.072 5.98408,13.1959 10.8216,24.0479 10.75,24.11539 -0.072,0.068 -10.59256,4.8558 -23.38008,10.6406 L 0,470.78121 0,400.78361 Z m 576,59.1445 c -11.82496,-5.4342 -21.81872,-10.0035 -22.20824,-10.1542 -0.3896,-0.1506 3.5808,-9.7239 8.82296,-21.2739 5.24224,-11.55 10.2124,-22.6628 11.04488,-24.6951 l 1.51368,-3.6951 -10.58664,-23.44131 C 558.764,363.7758 554,352.79491 554,352.26652 c 0,-0.74566 35.65992,-17.51545 44.25,-20.80943 1.65632,-0.63515 1.75,3.05457 1.75,68.93592 0,55.06999 -0.26104,69.587 -1.25,69.51119 -0.68752,-0.053 -10.92496,-4.54199 -22.75,-9.97609 z M 434.67928,449.17021 C 432.82368,446.6016 424.64184,435.05 416.49744,423.5 c -8.14448,-11.54999 -15.168,-21.47179 -15.60792,-22.04849 -0.67816,-0.88891 31.36648,-48.0312 35.54016,-52.28472 1.08664,-1.10743 6.45352,0.9849 31.68928,12.35425 16.7096,7.52811 30.74736,14.02938 31.19512,14.44726 0.44768,0.41789 0.49296,11.82229 0.10056,25.34311 l -0.71336,24.5833 -14.1396,6.4922 c -7.7768,3.5706 -21.42264,9.8584 -30.32408,13.9728 l -16.1844,7.4807 -3.37392,-4.6702 z M 173.64192,397.25 C 166.91976,384.13403 153.01232,352.59284 153.67008,351.95493 154.66848,350.98652 198.85736,331 200,331 c 0.75904,0 45.16968,19.84927 45.79896,20.46975 0.1644,0.16211 -4.49312,11.14774 -10.34992,24.4125 L 224.80024,400 l -24.87448,0 -24.8744,0 -1.40944,-2.75 z M 273,363.24301 c -14.02496,-6.37392 -25.64592,-11.6945 -25.82416,-11.82351 -0.17832,-0.129 4.81944,-11.41367 11.10624,-25.07703 l 11.4304,-24.84247 29.92576,-0.26434 29.92576,-0.26434 16.26968,23.12937 c 8.94824,12.72115 16.13384,23.21651 15.968,23.32301 -2.12144,1.3619 -61.35264,27.55334 -62.17304,27.49228 -0.62072,-0.0462 -12.6036,-5.29906 -26.62864,-11.67297 z M 226.68696,237.54293 C 212.55912,217.46842 201,200.58277 201,200.01927 c 0,-0.96921 32.92784,-49.12511 35.39192,-51.75959 0.9116,-0.97462 7.7952,1.75349 32.13408,12.73542 l 30.974,13.97572 0.2304,25.26459 0.23032,25.26459 -22.91184,23.97715 c -12.60152,13.18744 -23.30848,24.10939 -23.79336,24.27102 -0.48488,0.16162 -12.44072,-16.13074 -26.56856,-36.20524 z M 0,200.07205 0,130.1441 23.17208,140.57749 c 12.74472,5.73837 23.31312,10.57435 23.48536,10.74663 0.17232,0.17228 -4.67336,11.26418 -10.76808,24.64869 l -11.08128,24.33545 4.53504,10.09587 c 2.49424,5.55273 7.46136,16.50652 11.03792,24.34176 5.78208,12.66689 6.31528,14.34559 4.81088,15.14544 C 42.51064,251.3169 0.93344,270 0.44224,270 0.19904,270 0,238.53242 0,200.07205 Z m 581,61.80027 c -9.62496,-4.39627 -19.83568,-9.05384 -22.6904,-10.35016 l -5.1904,-2.35693 10.9404,-24.02604 C 570.0768,211.92487 575,200.73303 575,200.26844 c 0,-0.46459 -4.9116,-11.62754 -10.91464,-24.80657 -6.00304,-13.17903 -10.80552,-24.07192 -10.67208,-24.20643 0.13336,-0.1345 10.66992,-4.93958 23.41464,-10.67795 L 600,130.1441 l 0,69.92795 c 0,38.46037 -0.33752,69.8977 -0.75,69.86072 -0.41248,-0.037 -8.62496,-3.66418 -18.25,-8.06045 z M 423.25,140.17892 400,129.64707 l 0,-29.657708 0,-29.657702 8.75,-4.09209 c 4.81248,-2.250652 11,-5.08518 13.75,-6.298948 2.75,-1.213784 8.31696,-3.7572 12.37104,-5.652048 12.5452,-5.863592 10.71928,-7.48664 23.708,21.074296 l 11.30696,24.86288 -11.04056,24.63712 c -6.07232,13.55042 -11.33416,24.90955 -11.69304,25.24252 -0.3588,0.33296 -11.11488,-4.13395 -23.9024,-9.92647 z M 146,123.73004 c -8.52496,-12.21016 -15.63848,-22.73314 -15.80776,-23.38441 -0.434,-1.66962 22.07984,-50.345632 23.286,-50.345632 0.54496,0 11.19936,4.612504 23.67648,10.25 L 199.84032,70.5 199.28472,100 c -0.3056,16.225 -0.6992,29.66701 -0.87464,29.87113 -0.6784,0.78923 -34.83952,16.12696 -35.84552,16.09402 C 161.97904,145.94595 154.52504,135.94019 146,123.73004 Z M 259.08096,74.91511 C 252.89648,61.118422 248.09224,49.574398 248.40496,49.261742 249.21376,48.452902 299.0148,25.999998 300,25.999998 c 2.39608,0 51.48584,23.13624 51.40224,24.226096 -0.0536,0.700648 -4.9928,12.186408 -10.97576,25.523906 l -10.87792,24.25 -29.61152,0 -29.61152,0 -11.24456,-25.08489 z M 126.48112,37.126862 100.5,25.382582 100.22008,12.691286 99.94024,-1.5000001e-6 l 37.43264,0 37.43264,0 L 163.78432,24.249998 c -6.0616,13.337504 -11.08888,24.333512 -11.17168,24.435576 -0.0827,0.102064 -11.84192,-5.099352 -26.13152,-11.558712 z M 436.28208,24.364998 425.208,-1.5000001e-6 l 37.42584,0 37.42592,0 L 499.77992,12.60535 499.5,25.210702 l -22,9.942792 c -12.1,5.468528 -23.83232,10.760368 -26.07192,11.759648 l -4.07192,1.816848 -11.07408,-24.364992 z"
     id="path7200-5"
     inkscape:connector-curvature="0" />
</svg>
